<?xml version="1.0" standalone="no"?><!DOCTYPE svg PUBLIC "-//W3C//DTD SVG 1.1//EN" "http://www.w3.org/Graphics/SVG/1.1/DTD/svg11.dtd"><svg t="1702784435359" class="icon" viewBox="0 0 1024 1024" version="1.1" xmlns="http://www.w3.org/2000/svg" p-id="2208" id="mx_n_1702784435361" xmlns:xlink="http://www.w3.org/1999/xlink" width="128" height="128"><path d="M794.5216 522.9056C775.8336 406.4256 674.9184 317.44 553.1648 317.44c-2.4576 0-4.9152 0.1024-7.424 0.1536C511.2832 233.6768 428.8 174.592 332.4416 174.592c-127.3344 0-230.5536 103.2192-230.5536 230.5536 0 59.8016 22.784 114.3296 60.16 155.2896-33.1776 29.44-54.0672 72.3456-54.0672 120.1152 0 88.6784 71.8848 160.5632 160.5632 160.5632h495.616c88.6784 0 160.5632-71.8848 160.5632-160.5632 0-78.2336-56.064-143.4112-130.2016-157.6448z" fill="#D7ECFF" p-id="2209"></path><path d="M553.1648 317.44c-2.4576 0-4.9152 0.1024-7.424 0.1536C511.2832 233.6768 428.8 174.592 332.4416 174.592c-127.3344 0-230.5536 103.2192-230.5536 230.5536 0 59.8016 22.784 114.3296 60.16 155.2896-28.7232 25.4976-48.2816 61.1328-52.9408 101.3248 45.824 32.256 98.816 55.8592 157.184 67.7888 219.392 44.7488 433.664-90.9824 488.8576-305.408C711.1168 359.7312 637.0816 317.44 553.1648 317.44z" fill="#E0F0FF" p-id="2210"></path><path d="M142.1312 581.632c208.4864 37.5808 411.1872-66.2016 507.136-244.5824A244.224 244.224 0 0 0 553.1648 317.44c-2.4576 0-4.9152 0.1024-7.424 0.1536C511.2832 233.6768 428.8 174.592 332.4416 174.592c-127.3344 0-230.5536 103.2192-230.5536 230.5536 0 59.8016 22.784 114.3296 60.16 155.2896a162.46784 162.46784 0 0 0-19.9168 21.1968z" fill="#E9F4FF" p-id="2211"></path><path d="M512.512 261.2736C470.272 208.4352 405.2992 174.592 332.4416 174.592c-127.3344 0-230.5536 103.2192-230.5536 230.5536 0 9.7792 0.6656 19.4048 1.8432 28.8256 159.6416 13.8752 311.5008-54.016 408.7808-172.6976z" fill="#F4F9FF" p-id="2212"></path><path d="M818.7392 499.9168c-27.648-119.6544-131.2256-205.6704-254.8224-210.3808-43.6224-87.552-132.5568-143.104-231.4752-143.104-142.6432 0-258.7136 116.0704-258.7136 258.7136 0 55.7568 17.8688 109.4144 50.688 153.7536-27.8016 32.8704-44.5952 75.3664-44.5952 121.6512 0 104.0896 84.6848 188.7232 188.7232 188.7232h495.616c104.0896 0 188.7232-84.6848 188.7232-188.7232 0-83.7632-55.3984-156.928-134.144-180.6336zM332.4416 202.752c69.376 0 132.4032 34.9184 169.3184 91.4432-102.144 19.4048-185.2416 95.6416-212.1216 197.6832h-21.0944c-4.096 0-8.1408 0.1536-12.1856 0.4608-1.024 0.0512-2.048 0.1536-3.072 0.256-3.4816 0.256-6.9632 0.6656-10.3936 1.1264-0.5632 0.1024-1.1776 0.1536-1.7408 0.2048-4.096 0.6144-8.192 1.3312-12.1856 2.2016-0.5632 0.1024-1.1264 0.256-1.6896 0.4096-3.5328 0.8192-7.0144 1.6896-10.496 2.6624a218.66496 218.66496 0 0 0-13.6704 4.4544c-0.4096 0.1536-0.8704 0.3584-1.28 0.512-3.2768 1.2288-6.4512 2.56-9.6256 3.9936-1.0752 0.4608-2.0992 0.9728-3.1744 1.4336-3.1232 1.4848-6.2464 3.0208-9.2672 4.608-1.0752 0.5632-2.1504 1.2288-3.2768 1.792-2.5088 1.3824-4.9664 2.8672-7.3728 4.352-0.7168 0.4096-1.4336 0.8192-2.0992 1.28a201.79456 201.79456 0 0 1-36.8128-116.4288c-0.2048-111.6672 90.624-202.4448 202.24-202.4448z m431.6672 610.2528h-495.616c-73.0112 0-132.4032-59.392-132.4032-132.4032 0-39.9872 17.8176-75.8272 45.9264-100.1472 2.4576-2.0992 4.9152-4.1472 7.5264-6.0928 0.6144-0.4608 1.2288-0.8704 1.8432-1.3312 2.6624-1.9456 5.4272-3.7888 8.2432-5.4784 0.4096-0.256 0.8704-0.512 1.28-0.768 2.9696-1.7408 5.9904-3.4304 9.0624-4.9152 0.3072-0.1536 0.5632-0.3072 0.8704-0.4608 3.2768-1.5872 6.656-3.0208 10.0352-4.352 0.3584-0.1536 0.6656-0.256 1.024-0.4096 3.3792-1.28 6.8608-2.4064 10.3424-3.3792l1.1264-0.3072c3.4816-0.9728 7.0144-1.792 10.5472-2.4576 0.4096-0.1024 0.8704-0.1536 1.28-0.2048 3.584-0.6144 7.168-1.1264 10.8032-1.4848 0.4096-0.0512 0.768-0.0512 1.1776-0.1024 3.7376-0.3072 7.5264-0.512 11.3152-0.512h43.776c3.4304 0 6.7072-0.6144 9.7792-1.7408 2.3552-0.8704 4.5056-2.1504 6.5536-3.584 0.6144-0.4096 1.2288-0.8192 1.792-1.28 1.2288-1.024 2.3552-2.2016 3.4304-3.4304a27.8528 27.8528 0 0 0 6.1952-13.312c0.5632-3.1744 1.1776-6.3488 1.8432-9.472 21.0944-95.8976 105.6768-166.656 204.6976-169.5744h0.2048c2.0992-0.0512 4.2496-0.1536 6.3488-0.1536 106.8544 0 196.6592 76.4416 213.5552 181.76a28.2112 28.2112 0 0 0 22.4768 23.1936c62.208 11.9296 107.3152 66.6112 107.3152 129.9968 0.1024 73.0112-59.3408 132.4032-132.352 132.4032z" fill="#333333" p-id="2213"></path><path d="M539.3408 407.8592c-3.6352 0.4608-89.4464 12.8-122.9312 113.5616-4.9152 14.7456 3.072 30.72 17.8688 35.584 2.9696 0.9728 5.9392 1.4336 8.8576 1.4336 11.776 0 22.784-7.4752 26.7264-19.3024 21.9136-65.9456 74.2912-75.0592 77.0048-75.4688a28.18048 28.18048 0 0 0 24.0128-31.5392 28.1088 28.1088 0 0 0-31.5392-24.2688z" fill="#333333" p-id="2214"></path></svg>