<?xml version="1.0" standalone="no"?><!DOCTYPE svg PUBLIC "-//W3C//DTD SVG 1.1//EN" "http://www.w3.org/Graphics/SVG/1.1/DTD/svg11.dtd"><svg t="1702718982921" class="icon" viewBox="0 0 1024 1024" version="1.1" xmlns="http://www.w3.org/2000/svg" p-id="23047" xmlns:xlink="http://www.w3.org/1999/xlink" width="16" height="16"><path d="M297.984 214.016l598.016 0 0 84.010667-598.016 0 0-84.010667zM297.984 553.984l0-84.010667 598.016 0 0 84.010667-598.016 0zM297.984 809.984l0-84.010667 598.016 0 0 84.010667-598.016 0zM169.984 712.021333q24.021333 0 41.002667 16t16.981333 40.021333-16.981333 40.021333-41.002667 16-40.021333-16-16-40.021333 16-40.021333 40.021333-16zM169.984 192q25.984 0 45.013333 18.005333t18.986667 45.994667-18.986667 45.994667-45.013333 18.005333-45.013333-18.005333-18.986667-45.994667 18.986667-45.994667 45.013333-18.005333zM169.984 448q25.984 0 45.013333 18.005333t18.986667 45.994667-18.986667 45.994667-45.013333 18.005333-45.013333-18.005333-18.986667-45.994667 18.986667-45.994667 45.013333-18.005333z" fill="#2c2c2c" p-id="23048"></path></svg>