<?xml version="1.0" standalone="no"?><!DOCTYPE svg PUBLIC "-//W3C//DTD SVG 1.1//EN" "http://www.w3.org/Graphics/SVG/1.1/DTD/svg11.dtd"><svg t="1702718848015" class="icon" viewBox="0 0 1024 1024" version="1.1" xmlns="http://www.w3.org/2000/svg" p-id="21974" xmlns:xlink="http://www.w3.org/1999/xlink" width="16" height="16"><path d="M297.984 553.984l0-84.010667 598.016 0 0 84.010667-598.016 0zM297.984 809.984l0-84.010667 598.016 0 0 84.010667-598.016 0zM297.984 214.016l598.016 0 0 84.010667-598.016 0 0-84.010667zM86.016 470.016l0-43.989333 128 0 0 40.021333-77.994667 88.021333 77.994667 0 0 43.989333-128 0 0-40.021333 75.989333-88.021333-75.989333 0zM128 342.016l0-128-41.984 0 0-43.989333 84.010667 0 0 171.989333-41.984 0zM86.016 726.016l0-43.989333 128 0 0 171.989333-128 0 0-43.989333 84.010667 0 0-20.010667-41.984 0 0-43.989333 41.984 0 0-20.010667-84.010667 0z" fill="#2c2c2c" p-id="21975"></path></svg>