<?xml version="1.0" standalone="no"?><!DOCTYPE svg PUBLIC "-//W3C//DTD SVG 1.1//EN" "http://www.w3.org/Graphics/SVG/1.1/DTD/svg11.dtd"><svg t="1702718657185" class="icon" viewBox="0 0 1024 1024" version="1.1" xmlns="http://www.w3.org/2000/svg" p-id="12510" xmlns:xlink="http://www.w3.org/1999/xlink" width="16" height="16"><path d="M248.064 538.5728h112.2816a168.3968 168.3968 0 0 1-168.3968 168.3968 56.32 56.32 0 1 0 0 112.2816A280.6784 280.6784 0 0 0 472.576 538.624V314.0096A112.2816 112.2816 0 0 0 360.2944 201.728H248.064a112.2816 112.2816 0 0 0-112.2816 112.2816v112.2816a112.2816 112.2816 0 0 0 112.2816 112.2816z m392.9088 168.3968a56.32 56.32 0 1 0 0 112.2816A280.6784 280.6784 0 0 0 921.6 538.624V314.0096a112.2304 112.2304 0 0 0-112.2816-112.2816h-112.2304a112.2304 112.2304 0 0 0-112.2816 112.2816v112.2816a112.2304 112.2304 0 0 0 112.2816 112.2816h112.2816a168.3968 168.3968 0 0 1-168.448 168.3456z" fill="#2c2c2c" p-id="12511"></path></svg>