<?xml version="1.0" standalone="no"?><!DOCTYPE svg PUBLIC "-//W3C//DTD SVG 1.1//EN" "http://www.w3.org/Graphics/SVG/1.1/DTD/svg11.dtd"><svg t="1702718727666" class="icon" viewBox="0 0 1024 1024" version="1.1" xmlns="http://www.w3.org/2000/svg" p-id="20907" xmlns:xlink="http://www.w3.org/1999/xlink" width="16" height="16"><path d="M512 0a512 512 0 1 0 512 512 512 512 0 0 0-512-512z m169.6 768H352.64v-50.56C524.8 576 618.88 491.52 618.88 404.48A91.52 91.52 0 0 0 518.4 311.68a156.8 156.8 0 0 0-128 64l-38.4-40.32A200.96 200.96 0 0 1 518.4 256a148.48 148.48 0 0 1 160.64 148.48c0 103.04-99.2 196.48-232.32 307.84h234.88z" fill="#2c2c2c" p-id="20908"></path></svg>