<?xml version="1.0" standalone="no"?><!DOCTYPE svg PUBLIC "-//W3C//DTD SVG 1.1//EN" "http://www.w3.org/Graphics/SVG/1.1/DTD/svg11.dtd"><svg t="1702784454954" class="icon" viewBox="0 0 1024 1024" version="1.1" xmlns="http://www.w3.org/2000/svg" p-id="2308" xmlns:xlink="http://www.w3.org/1999/xlink" width="128" height="128"><path d="M752.5376 154.88H264.1408c-79.5648 0-144.0256 65.6384-144.0256 146.6368v297.1136c0 80.9984 64.4608 146.6368 144.0256 146.6368h488.3968c79.5136 0 144.0256-65.6384 144.0256-146.6368V301.5168c0-80.9984-64.512-146.6368-144.0256-146.6368z" fill="#D2F4FF" p-id="2309"></path><path d="M264.1408 154.88c-79.5648 0-144.0256 65.6384-144.0256 146.6368v244.1728a427.99104 427.99104 0 0 0 208.384 107.8272c232.704 47.4624 459.776-102.7072 507.2384-335.4112a429.16352 429.16352 0 0 0 6.2976-131.4304c-24.576-19.9168-55.7056-31.8464-89.5488-31.8464H264.1408z" fill="#D9F6FF" p-id="2310"></path><path d="M752.5376 154.88H264.1408c-79.5648 0-144.0256 65.6384-144.0256 146.6368v178.3296c22.3744 8.0896 45.6192 14.6944 69.632 19.5584 252.9792 51.6096 500.1728-100.7616 571.1872-344.2688-2.7648-0.1536-5.5808-0.256-8.3968-0.256z" fill="#E3F8FF" p-id="2311"></path><path d="M595.2 154.88H264.1408c-79.5648 0-144.0256 65.6384-144.0256 146.6368v43.008c186.5728 32.256 368.1792-46.2848 475.0848-189.6448z" fill="#EEFAFF" p-id="2312"></path><path d="M752.5376 126.72H264.1408c-94.9248 0-172.1856 78.4384-172.1856 174.7968v297.1136c0 96.3584 77.2096 174.7968 172.1856 174.7968H480.768v56.2688H303.36c-15.5648 0-28.16 12.5952-28.16 28.16s12.5952 28.16 28.16 28.16h417.3312c15.5648 0 28.16-12.5952 28.16-28.16s-12.5952-28.16-28.16-28.16h-183.6544v-56.2688h215.4496c94.9248 0 172.1856-78.4384 172.1856-174.7968V301.5168c0.0512-96.3584-77.2096-174.7968-172.1344-174.7968z m115.8656 471.9104c0 65.3312-51.968 118.4768-115.8656 118.4768H264.1408c-63.8976 0-115.8656-53.1456-115.8656-118.4768V301.5168c0-65.3312 51.968-118.4768 115.8656-118.4768h488.3968c63.8976 0 115.8656 53.1456 115.8656 118.4768v297.1136z" fill="#333333" p-id="2313"></path><path d="M694.1184 363.52l-121.3952 129.3312-80.384-107.1616a55.25504 55.25504 0 0 0-40.9088-22.016c-16.128-0.9728-32 5.1712-43.264 16.8448L283.136 510.464a28.16 28.16 0 0 0 0.768 39.8336 28.01664 28.01664 0 0 0 19.5072 7.8848c7.3728 0 14.7456-2.8672 20.2752-8.6528L448 420.352l80.384 107.1616c9.8304 13.1072 24.8832 21.1456 41.216 22.0672 16.3328 0.9216 32.2048-5.4272 43.4176-17.408l122.1632-130.1504a28.1088 28.1088 0 0 0-1.28-39.7824 28.1088 28.1088 0 0 0-39.7824 1.28z" fill="#333333" p-id="2314"></path></svg>